<?xml version="1.0" standalone="no"?>
<!DOCTYPE svg PUBLIC "-//W3C//DTD SVG 20010904//EN"
 "http://www.w3.org/TR/2001/REC-SVG-20010904/DTD/svg10.dtd">
<svg version="1.0" xmlns="http://www.w3.org/2000/svg"
 width="1117.000000pt" height="1117.000000pt" viewBox="0 0 1117.000000 1117.000000"
 preserveAspectRatio="xMidYMid meet">
<metadata>
Created by potrace 1.11, written by Peter Selinger 2001-2013
</metadata>
<g transform="translate(0.000000,1117.000000) scale(0.100000,-0.100000)"
fill="#000000" stroke="none">
<path d="M5270 11159 c-1601 -88 -3099 -872 -4086 -2139 -1032 -1325 -1415
-3037 -1044 -4670 369 -1626 1451 -3008 2939 -3755 1575 -790 3437 -790 5012
0 1333 669 2350 1856 2807 3275 361 1122 360 2330 -5 3445 -645 1978 -2339
3436 -4382 3774 -429 71 -820 93 -1241 70z m-1167 -2454 c69 -170 187 -463
262 -650 75 -187 183 -455 240 -595 57 -140 155 -383 218 -540 63 -157 171
-424 240 -595 69 -170 178 -440 242 -600 114 -282 252 -626 585 -1450 88 -220
243 -603 343 -852 l182 -451 105 -7 c181 -11 311 -23 317 -29 3 -3 3 -12 0
-21 -6 -13 -122 -15 -1081 -15 -912 0 -1075 2 -1079 14 -3 8 -3 17 0 20 4 3
120 6 260 6 150 0 253 4 253 9 0 5 -48 130 -106 278 -58 147 -130 329 -159
403 -29 74 -97 245 -150 380 -53 135 -121 306 -150 380 -53 136 -212 538 -415
1050 -135 341 -285 722 -355 900 -29 74 -105 268 -169 430 -64 162 -142 360
-173 440 -31 80 -59 148 -62 152 -4 4 -58 -84 -121 -194 -144 -252 -129 -232
-164 -217 -20 9 -26 19 -23 33 2 12 183 469 402 1016 218 547 401 1006 407
1020 8 20 11 22 18 10 4 -8 64 -154 133 -325z m4797 211 c129 -9 408 -76 395
-95 -2 -5 -19 -11 -36 -15 -50 -10 -196 -82 -262 -130 -164 -117 -273 -287
-382 -596 -130 -372 -163 -459 -232 -630 -128 -312 -189 -424 -316 -577 -181
-217 -422 -372 -836 -540 -102 -41 -188 -77 -190 -79 -2 -2 50 -74 116 -161
921 -1214 1294 -1708 1523 -2013 328 -438 527 -687 635 -796 44 -44 158 -147
253 -228 94 -80 172 -149 172 -151 0 -3 -479 -5 -1065 -5 -1036 0 -1065 1
-1065 19 0 21 21 23 379 41 107 5 195 11 197 12 1 2 -241 332 -538 733 -297
402 -723 977 -946 1280 -224 302 -469 633 -544 734 l-137 185 124 119 c402
384 638 770 1037 1695 60 139 133 301 162 360 242 481 740 809 1276 841 106 6
145 6 280 -3z m-5221 -3511 c63 -8 118 -18 123 -21 5 -4 -27 -28 -73 -55 -191
-114 -317 -254 -426 -474 -55 -109 -102 -237 -188 -505 -121 -379 -276 -750
-380 -911 -135 -208 -301 -361 -513 -472 -284 -148 -657 -181 -1047 -91 -38 9
-74 20 -79 25 -5 4 22 23 60 42 141 71 259 177 349 312 93 141 148 269 315
740 173 488 252 665 382 860 216 325 489 503 858 561 111 17 464 11 619 -11z"/>
</g>
</svg>
